<svg id="Camada_1" data-name="Camada 1" xmlns="http://www.w3.org/2000/svg" viewBox="0 0 198.3 62.66"><defs><style>.cls-1,.cls-2{fill:#fff;}.cls-2{font-size:24px;font-family:Kalam-Bold, Kalam;font-weight:700;}</style></defs><title>LOGO</title><path class="cls-1" d="M131.57,222.75c16.53,0,30-11.23,30-25s-13.45-25-30-25-30,11.22-30,25S115,222.75,131.57,222.75Zm23.58-29.45c-2.5-1.22-1.87.17-1.87.17l1.66,1.22c1.67,1.22,2.92,1.74,2.3,3.44s-1.67.21-3.76,1.6,2.51,1.74,2.71,3.83-2.5,1-3.75,3.13-.21,4.34-.83,6.26-5.84,4.52-7.73,5.38-.61-1.91,0-3.82-1.44-4-1.44-7.48-1.25-2.43-5-2.43-5.42-1.74-5.84-5,3.13-6.61,4.79-7.65,4-2.09,6.26-1,3.12,2.08,5.62,2.08,2.5-.69,4-1.56-2.08-1.91-4.17-1.73-1.66-1-4.37-1.92-3.75.87-4.59,1.21-3.75,1.4-4,0,1.54-1.56,3.42-1.56.21-1.22-.42-2.09-1.88-.87-2.78-1.54,1.11-1.93,3.2-1.52,1.25,1.67,3.54,1.5,0-1.91,0-3.6,2.5-1.62,4.17-2.29,3.75,2.93,5.21,4.39c.48.49,1.17.27,1.88-.22a22.24,22.24,0,0,1,6.84,12.87C157.14,195.82,157.34,194.37,155.15,193.3Zm-23.58-19.56c1.15,0,2.28.06,3.39.17a6.25,6.25,0,0,1-1.07,1.66s-.83,2.26-2.71,2.43-4.17,0-5.21,1.39-.83,3.83-2.5,2.44-.21-1.5-1.88-2.92-2.08-1.43-2.91-1.43c-.25,0-.53-.35-.75-.87A33.22,33.22,0,0,1,131.57,173.74Zm-17.4,4.9c0,.25.22.61,1.5,1.06,2.5.87,3.08,2.59,1.93,2.52s-5.84.47-1.53,1.51,4,2.26,2,2.79-1.51-1.74-1.93.52-.83,2.09-2.19,2.44-3.86,2.08-3.86,3.3-.83,1.9.84,2.94-.52,2.95-1.31,1.56c-1-1.67-1.61-2.59-2.65-2.76s-2.39,1.21,0,2.6,2.5,2.26,2.5,3.31,1.72,1,3,.87,4,2.78,5,4a8.56,8.56,0,0,0,4.89,2.95c2.29.52,3.13,1.74,1.88,2.61s-1.46,2.95-2.92,3.48-1.67,2.08-2.5,2.78a6.67,6.67,0,0,0-1.36,1.55,32.14,32.14,0,0,1-3.56-2c0-.16-.07-.31-.09-.45-.2-1.74-.41-3.83-1.66-4.7a6.37,6.37,0,0,1-2.5-3.47c-.42-1.39.62-3.48-.21-4.87s-.83-.09-2.5-2a25.47,25.47,0,0,1-2.71-3.52,9.65,9.65,0,0,1-1.17-3.58C104.29,187.8,108.37,182.32,114.17,178.64Z" transform="translate(-101.58 -170.59)"/><text class="cls-2" transform="translate(67.26 21.12)">GAIA<tspan x="0" y="28.8">CONECTA</tspan></text></svg>